<svg width="32" height="32" viewBox="0 0 32 32" fill="none" xmlns="http://www.w3.org/2000/svg">
<mask id="path-1-outside-1_4_4" maskUnits="userSpaceOnUse" x="0" y="7" width="32" height="19" fill="black">
<rect fill="white" y="7" width="32" height="19"/>
<path d="M2.06641 10.2109C1.63672 10.2109 1.42188 10.0352 1.42188 9.68359V8.72266C1.42188 8.37109 1.63672 8.19531 2.06641 8.19531H14.4648C14.8945 8.19531 15.1094 8.37109 15.1094 8.72266V9.68359C15.1094 10.0352 14.8945 10.2109 14.4648 10.2109H9.39062V24.3555C9.39062 24.7852 9.19531 25 8.80469 25H7.72656C7.33594 25 7.14062 24.7852 7.14062 24.3555V10.2109H2.06641ZM18.1094 25C17.7188 25 17.5234 24.7852 17.5234 24.3555V8.83984C17.5234 8.41016 17.7188 8.19531 18.1094 8.19531H19.1875C19.5781 8.19531 19.7734 8.41016 19.7734 8.83984V15.7305C19.7734 16.043 19.7656 16.3555 19.75 16.668H19.7969L27.625 8.65234C27.9219 8.34766 28.1953 8.19531 28.4453 8.19531H29.8633C30.5117 8.19531 30.582 8.45312 30.0742 8.96875L24.1211 15.0391L30.3906 24.2266C30.7344 24.7422 30.6641 25 30.1797 25H28.75C28.4062 25 28.1328 24.8477 27.9297 24.543L22.5742 16.6328L19.7734 19.4805V24.3555C19.7734 24.7852 19.5781 25 19.1875 25H18.1094Z"/>
</mask>
<path d="M2.06641 10.2109C1.63672 10.2109 1.42188 10.0352 1.42188 9.68359V8.72266C1.42188 8.37109 1.63672 8.19531 2.06641 8.19531H14.4648C14.8945 8.19531 15.1094 8.37109 15.1094 8.72266V9.68359C15.1094 10.0352 14.8945 10.2109 14.4648 10.2109H9.39062V24.3555C9.39062 24.7852 9.19531 25 8.80469 25H7.72656C7.33594 25 7.14062 24.7852 7.14062 24.3555V10.2109H2.06641ZM18.1094 25C17.7188 25 17.5234 24.7852 17.5234 24.3555V8.83984C17.5234 8.41016 17.7188 8.19531 18.1094 8.19531H19.1875C19.5781 8.19531 19.7734 8.41016 19.7734 8.83984V15.7305C19.7734 16.043 19.7656 16.3555 19.75 16.668H19.7969L27.625 8.65234C27.9219 8.34766 28.1953 8.19531 28.4453 8.19531H29.8633C30.5117 8.19531 30.582 8.45312 30.0742 8.96875L24.1211 15.0391L30.3906 24.2266C30.7344 24.7422 30.6641 25 30.1797 25H28.75C28.4062 25 28.1328 24.8477 27.9297 24.543L22.5742 16.6328L19.7734 19.4805V24.3555C19.7734 24.7852 19.5781 25 19.1875 25H18.1094Z" fill="white"/>
<path d="M9.39062 10.2109V9.21094H8.39062V10.2109H9.39062ZM7.14062 10.2109H8.14062V9.21094H7.14062V10.2109ZM2.06641 9.21094C1.96241 9.21094 2.07015 9.18561 2.21625 9.30514C2.29514 9.36969 2.35381 9.45247 2.38825 9.53701C2.4202 9.61542 2.42188 9.67155 2.42188 9.68359H0.421875C0.421875 10.0724 0.550419 10.5263 0.94977 10.8531C1.31071 11.1484 1.74071 11.2109 2.06641 11.2109V9.21094ZM2.42188 9.68359V8.72266H0.421875V9.68359H2.42188ZM2.42188 8.72266C2.42188 8.7347 2.4202 8.79083 2.38825 8.86924C2.35381 8.95378 2.29514 9.03656 2.21625 9.10111C2.07015 9.22064 1.96241 9.19531 2.06641 9.19531V7.19531C1.74071 7.19531 1.31071 7.25787 0.94977 7.55319C0.550419 7.87993 0.421875 8.33384 0.421875 8.72266H2.42188ZM2.06641 9.19531H14.4648V7.19531H2.06641V9.19531ZM14.4648 9.19531C14.5688 9.19531 14.4611 9.22064 14.315 9.10111C14.2361 9.03656 14.1774 8.95378 14.143 8.86924C14.1111 8.79083 14.1094 8.7347 14.1094 8.72266H16.1094C16.1094 8.33384 15.9808 7.87993 15.5815 7.55319C15.2205 7.25787 14.7905 7.19531 14.4648 7.19531V9.19531ZM14.1094 8.72266V9.68359H16.1094V8.72266H14.1094ZM14.1094 9.68359C14.1094 9.67155 14.1111 9.61542 14.143 9.53701C14.1774 9.45247 14.2361 9.36969 14.315 9.30514C14.4611 9.18561 14.5688 9.21094 14.4648 9.21094V11.2109C14.7905 11.2109 15.2205 11.1484 15.5815 10.8531C15.9808 10.5263 16.1094 10.0724 16.1094 9.68359H14.1094ZM14.4648 9.21094H9.39062V11.2109H14.4648V9.21094ZM8.39062 10.2109V24.3555H10.3906V10.2109H8.39062ZM8.39062 24.3555C8.39062 24.4385 8.36971 24.3141 8.5042 24.1662C8.65513 24.0002 8.81999 24 8.80469 24V26C9.18001 26 9.63784 25.8924 9.98408 25.5115C10.3139 25.1488 10.3906 24.7021 10.3906 24.3555H8.39062ZM8.80469 24H7.72656V26H8.80469V24ZM7.72656 24C7.71126 24 7.87612 24.0002 8.02705 24.1662C8.16154 24.3141 8.14062 24.4385 8.14062 24.3555H6.14062C6.14062 24.7021 6.21737 25.1488 6.54717 25.5115C6.89341 25.8924 7.35124 26 7.72656 26V24ZM8.14062 24.3555V10.2109H6.14062V24.3555H8.14062ZM7.14062 9.21094H2.06641V11.2109H7.14062V9.21094ZM19.75 16.668L18.7512 16.618L18.6988 17.668H19.75V16.668ZM19.7969 16.668V17.668H20.218L20.5123 17.3667L19.7969 16.668ZM27.625 8.65234L28.3404 9.35103L28.3412 9.35021L27.625 8.65234ZM30.0742 8.96875L29.3617 8.26706L29.3603 8.26857L30.0742 8.96875ZM24.1211 15.0391L23.4071 14.3389L22.8325 14.9248L23.2951 15.6027L24.1211 15.0391ZM30.3906 24.2266L31.2227 23.6718L31.2166 23.6629L30.3906 24.2266ZM27.9297 24.543L28.7618 23.9883L28.7578 23.9823L27.9297 24.543ZM22.5742 16.6328L23.4023 16.0722L22.7176 15.0609L21.8613 15.9316L22.5742 16.6328ZM19.7734 19.4805L19.0605 18.7793L18.7734 19.0711V19.4805H19.7734ZM18.1094 24C18.0941 24 18.2589 24.0002 18.4099 24.1662C18.5444 24.3141 18.5234 24.4385 18.5234 24.3555H16.5234C16.5234 24.7021 16.6002 25.1488 16.93 25.5115C17.2762 25.8924 17.7341 26 18.1094 26V24ZM18.5234 24.3555V8.83984H16.5234V24.3555H18.5234ZM18.5234 8.83984C18.5234 8.75682 18.5444 8.88118 18.4099 9.02912C18.2589 9.19514 18.0941 9.19531 18.1094 9.19531V7.19531C17.7341 7.19531 17.2762 7.30291 16.93 7.68377C16.6002 8.04655 16.5234 8.49318 16.5234 8.83984H18.5234ZM18.1094 9.19531H19.1875V7.19531H18.1094V9.19531ZM19.1875 9.19531C19.2028 9.19531 19.0379 9.19514 18.887 9.02912C18.7525 8.88118 18.7734 8.75682 18.7734 8.83984H20.7734C20.7734 8.49318 20.6967 8.04655 20.3669 7.68377C20.0207 7.30291 19.5628 7.19531 19.1875 7.19531V9.19531ZM18.7734 8.83984V15.7305H20.7734V8.83984H18.7734ZM18.7734 15.7305C18.7734 16.0263 18.766 16.3221 18.7512 16.618L20.7488 16.7179C20.7652 16.3888 20.7734 16.0596 20.7734 15.7305H18.7734ZM19.75 17.668H19.7969V15.668H19.75V17.668ZM20.5123 17.3667L28.3404 9.35103L26.9096 7.95365L19.0815 15.9693L20.5123 17.3667ZM28.3412 9.35021C28.4446 9.24416 28.5115 9.1987 28.5394 9.18314C28.5643 9.1693 28.5285 9.19531 28.4453 9.19531V7.19531C27.7884 7.19531 27.2697 7.5841 26.9088 7.95448L28.3412 9.35021ZM28.4453 9.19531H29.8633V7.19531H28.4453V9.19531ZM29.8633 9.19531C29.979 9.19531 29.9719 9.20945 29.9036 9.18493C29.8272 9.15752 29.5389 9.02323 29.4376 8.65179C29.3938 8.49128 29.408 8.35591 29.4271 8.27301C29.4454 8.19354 29.4714 8.14673 29.4763 8.13802C29.4832 8.1257 29.4605 8.16678 29.3617 8.26706L30.7867 9.67044C30.9418 9.51291 31.1007 9.3284 31.2171 9.12272C31.3203 8.94029 31.4879 8.5686 31.3671 8.12555C31.2306 7.62521 30.8349 7.39424 30.5788 7.30237C30.3308 7.2134 30.0717 7.19531 29.8633 7.19531V9.19531ZM29.3603 8.26857L23.4071 14.3389L24.8351 15.7392L30.7882 9.66893L29.3603 8.26857ZM23.2951 15.6027L29.5646 24.7902L31.2166 23.6629L24.9471 14.4754L23.2951 15.6027ZM29.5586 24.7813C29.6194 24.8725 29.6316 24.9085 29.628 24.8983C29.6253 24.8907 29.6137 24.8564 29.6079 24.8004C29.602 24.7433 29.6012 24.6526 29.6309 24.5435C29.7025 24.281 29.8892 24.1167 30.0438 24.0448C30.1613 23.9902 30.231 24 30.1797 24V26C30.3706 26 30.6307 25.9776 30.8868 25.8585C31.1801 25.7222 31.4537 25.4612 31.5605 25.0698C31.6533 24.7295 31.5818 24.4244 31.5136 24.2316C31.4416 24.028 31.3337 23.8384 31.2227 23.6719L29.5586 24.7813ZM30.1797 24H28.75V26H30.1797V24ZM28.75 24C28.7383 24 28.7377 23.9988 28.745 24.0006C28.7485 24.0014 28.7531 24.0028 28.7584 24.0049C28.7637 24.007 28.7689 24.0095 28.7738 24.0122C28.7787 24.0149 28.7824 24.0174 28.7849 24.0193C28.7874 24.0211 28.7882 24.022 28.7874 24.0212C28.7857 24.0196 28.7764 24.0103 28.7617 23.9883L27.0976 25.0977C27.4718 25.6589 28.0467 26 28.75 26V24ZM28.7578 23.9823L23.4023 16.0722L21.7462 17.1934L27.1016 25.1036L28.7578 23.9823ZM21.8613 15.9316L19.0605 18.7793L20.4864 20.1817L23.2872 17.334L21.8613 15.9316ZM18.7734 19.4805V24.3555H20.7734V19.4805H18.7734ZM18.7734 24.3555C18.7734 24.4385 18.7525 24.3141 18.887 24.1662C19.0379 24.0002 19.2028 24 19.1875 24V26C19.5628 26 20.0207 25.8924 20.3669 25.5115C20.6967 25.1488 20.7734 24.7021 20.7734 24.3555H18.7734ZM19.1875 24H18.1094V26H19.1875V24Z" fill="#333333" mask="url(#path-1-outside-1_4_4)"/>
</svg>
